<svg id="shopping_bag_black_24dp_2_" data-name="shopping_bag_black_24dp (2)" xmlns="http://www.w3.org/2000/svg" width="35" height="35" viewBox="0 0 45 45">
  <rect id="Rectangle_16923" data-name="Rectangle 16923" width="35" height="35" fill="none"/>
  <path id="Path_642" data-name="Path 642" d="M30.169,9.477H26.43a7.477,7.477,0,1,0-14.953,0H7.738A3.749,3.749,0,0,0,4,13.215v22.43a3.749,3.749,0,0,0,3.738,3.738h22.43a3.749,3.749,0,0,0,3.738-3.738V13.215A3.749,3.749,0,0,0,30.169,9.477ZM18.953,5.738a3.749,3.749,0,0,1,3.738,3.738H15.215A3.749,3.749,0,0,1,18.953,5.738ZM30.169,35.645H7.738V13.215h3.738v3.738a1.869,1.869,0,1,0,3.738,0V13.215h7.477v3.738a1.869,1.869,0,1,0,3.738,0V13.215h3.738Z" transform="translate(3.477 1.738)" fill="#6efafb"/>
</svg>
